<?xml version="1.0" encoding="UTF-8"?>
<svg id="Layer_1" xmlns="http://www.w3.org/2000/svg" version="1.1" viewBox="0 0 2000 2000">
  <!-- Generator: Adobe Illustrator 29.0.0, SVG Export Plug-In . SVG Version: 2.1.0 Build 186)  -->
  <defs>
    <style>
      .st0 {
        fill: #fefdfd;
      }

      .st1 {
        fill: #4ec825;
      }

      .st2 {
        fill: #fdd004;
      }

      .st3 {
        fill: #fea203;
      }

      .st4 {
        fill: #bc60d3;
      }

      .st5 {
        fill: #139af4;
      }

      .st6 {
        fill: #fe4e44;
      }
    </style>
  </defs>
  <path class="st0" d="M1627.27,1774.47c3.33-2.23,6.65-4.45,9.98-6.68,49.07-32.7,85.31-79.02,124.8-121.34,45.57-48.84,82.1-105.21,113.71-164.31,108.78-203.31,150.65-417.98,109.27-646.69-1.54-12.14-2.1-24.49-4.75-36.38-55.13-246.98-181.24-449.01-384.71-600.55-72.32-53.86-148.82-101.66-237.07-126.51l.48-.09c-2.26-7.12-7.97-6.37-13.54-5.94C1229.27,14.74,1105.73-2.12,980.99.21c-112.24,2.1-223.02,22.72-328.65,64.43-107.12,42.29-208.31,94.39-293.15,174.11-91.71,69.97-161.46,158.8-220.02,257.08C50.06,645.39,7.41,808.79-.06,981.41c-2.83,65.48,3.45,131.24,19.63,195.41,0,5.57-.99,11.34.12,16.67,49.74,239.22,169.97,435.88,359.63,589.36,82.7,66.93,172.96,121.75,275.9,152.92l-.27-.93c-.38,2.32.5,4.12,2.64,5.39,135.09,44.1,272.14,68.59,415.61,56.84,175.51-14.37,335.9-68.76,482.07-165.93,25.53-16.97,53.51-31.38,72.48-56.94l-.48.27Z"/>
  <path class="st2" d="M19.57,1176.82C3.38,1112.65-2.89,1046.89-.06,981.41c7.47-172.62,50.12-336.02,139.23-485.59,58.56-98.28,128.31-187.11,220.02-257.08,19.8-2.19,39.57-5.82,59.41-6.34,102.17-2.7,197.23,25.07,287.9,69.83,87.58,43.24,161.86,103.21,210.9,188.24,66.59,115.48,101.61,240.31,100.81,375.03-.27,45.99-9.49,108.8-19.57,148.93-.32,2.41.31-2.41,0,0h0c1.24-9.67,0,0,0,0-89.96-63.62-196.67-146.55-305.9-172.66-91.36-21.84-184.54-31.88-274.08-6.12-182.96,52.62-319.37,165.1-399.09,341.17Z"/>
  <path class="st6" d="M998.65,1014.43c.32-2.41,0,0,0,0,98.25-27.97,189.32-90.51,258.82-166.45,34.57-37.77,76.09-70.13,105.86-111.18,102.22-140.97,117.34-297.68,74.45-463.19-13.87-53.52-24.93-107.51-54.38-155.8-8.93-14.64-26.66-25.21-24.89-45.79,88.26,24.84,164.75,72.65,237.07,126.51,203.47,151.54,329.58,353.57,384.71,600.55,2.65,11.89,3.22,24.24,4.75,36.38-24.62,70.98-69.89,127.77-122.76,179.51-157.98,154.59-343.74,205.02-558.1,150.02-111.55-28.62-216.87-77.4-305.51-150.56h0Z"/>
  <path class="st3" d="M1358.5,72.02c-1.77,20.58,15.96,31.15,24.89,45.79,29.45,48.29,40.51,102.28,54.38,155.8,42.89,165.51,27.77,322.23-74.45,463.19-29.77,41.05-71.29,73.41-105.86,111.18-107.46,126.32-258.82,166.45-258.82,166.45,0,0,19.3-102.94,19.57-148.93.8-134.71-34.22-259.55-100.81-375.03-49.04-85.04-123.32-145.01-210.9-188.24-90.67-44.76-185.73-72.53-287.9-69.83-19.84.52-39.61,4.15-59.41,6.34,84.84-79.71,186.03-131.82,293.15-174.11C757.97,22.93,868.75,2.3,980.99.21c124.74-2.33,248.28,14.53,364.46,65.78,3.34,4.66,7.81,6.72,13.53,5.94l-.48.09Z"/>
  <path class="st1" d="M19.57,1176.82c79.73-176.07,216.13-288.55,399.09-341.17,89.54-25.75,182.72-15.72,274.08,6.12,109.23,26.11,215.94,109.03,305.9,172.66h0c-207.19,73.33-356.65,201.11-429.68,410.18-36.84,105.47-25.85,213.81.23,321.38,16.78,69.21,47.97,130.78,86.03,189.78-102.94-31.16-193.2-85.99-275.9-152.92-189.65-153.48-309.88-350.14-359.63-589.36-1.11-5.34-.13-11.1-.12-16.67Z"/>
  <path class="st5" d="M655.22,1935.77c-38.06-59-69.25-120.57-86.03-189.78-26.07-107.57-37.07-215.92-.23-321.38,73.03-209.07,222.49-336.85,429.68-410.18h0c-7.98,106.1-1.8,280.94,34.3,380.29,47.65,131.15,127.38,235.81,254.78,300.9,107.18,54.76,219.07,85.34,340.03,78.59-18.97,25.55-46.95,39.97-72.48,56.94-146.17,97.16-306.56,151.55-482.07,165.93-143.46,11.75-280.52-12.74-415.58-56.82.17-2.26-.73-4.07-2.67-5.4l.27.93Z"/>
  <path class="st4" d="M1627.75,1774.21c-120.96,6.75-232.85-23.83-340.03-78.59-127.4-65.09-207.13-169.75-254.78-300.9-36.1-99.35-42.28-274.19-34.3-380.29h0s192.02,120.35,305.52,150.56c214.36,55,400.12,4.57,558.1-150.02,52.87-51.74,98.14-108.53,122.76-179.51,41.38,228.71-.49,443.38-109.26,646.69-31.62,59.1-68.14,115.46-113.71,164.31-39.49,42.32-75.73,88.63-124.81,121.34-4.31.77-8.84,1.19-9.97,6.68l.48-.27Z"/>
  <path class="st6" d="M1358.98,71.94c-5.72.78-10.2-1.28-13.53-5.94,5.56-.42,11.28-1.18,13.53,5.94Z"/>
  <path class="st5" d="M1627.27,1774.47c1.14-5.49,5.67-5.91,9.97-6.68-3.32,2.23-6.65,4.45-9.97,6.68Z"/>
  <path class="st1" d="M654.95,1934.84c1.95,1.34,2.85,3.14,2.67,5.4-2.17-1.29-3.05-3.08-2.67-5.4Z"/>
</svg>